{
  "accessors": [
    {
      "bufferView": 2,
      "componentType": 5126,
      "count": 22493,
      "max": [
        0.5312600135803223,
        0.46061399579048157,
        0.6794229745864868
      ],
      "min": [
        -0.23438499867916107,
        -0.6416130065917969,
        0.11408600211143494
      ],
      "type": "VEC3"
    },
    {
      "bufferView": 2,
      "byteOffset": 269916,
      "componentType": 5126,
      "count": 22493,
      "max": [
        1.0,
        1.0,
        1.0
      ],
      "min": [
        -1.0,
        -1.0,
        -1.0
      ],
      "type": "VEC3"
    },
    {
      "bufferView": 3,
      "componentType": 5126,
      "count": 22493,
      "max": [
        1.0,
        1.0,
        1.0,
        1.0
      ],
      "min": [
        -1.0,
        -1.0,
        -1.0,
        -1.0
      ],
      "type": "VEC4"
    },
    {
      "bufferView": 1,
      "componentType": 5126,
      "count": 22493,
      "max": [
        0.9966310262680054,
        0.9992939829826355
      ],
      "min": [
        -0.0834709033370018,
        0.0028397399000823498
      ],
      "type": "VEC2"
    },
    {
      "bufferView": 0,
      "componentType": 5125,
      "count": 99282,
      "type": "SCALAR"
    },
    {
      "bufferView": 2,
      "byteOffset": 539832,
      "componentType": 5126,
      "count": 3840,
      "max": [
        0.5312600135803223,
        0.4189389944076538,
        0.6598759889602661
      ],
      "min": [
        -0.23438499867916107,
        -0.6416130065917969,
        0.11865799874067307
      ],
      "type": "VEC3"
    },
    {
      "bufferView": 2,
      "byteOffset": 585912,
      "componentType": 5126,
      "count": 3840,
      "max": [
        1.0,
        1.0,
        1.0
      ],
      "min": [
        -1.0,
        -1.0,
        -1.0
      ],
      "type": "VEC3"
    },
    {
      "bufferView": 3,
      "byteOffset": 359888,
      "componentType": 5126,
      "count": 3840,
      "max": [
        1.0,
        1.0,
        1.0,
        1.0
      ],
      "min": [
        -1.0,
        -0.9797369837760925,
        -1.0,
        -1.0
      ],
      "type": "VEC4"
    },
    {
      "bufferView": 1,
      "byteOffset": 179944,
      "componentType": 5126,
      "count": 3840,
      "max": [
        0.9953190088272095,
        0.9991009831428528
      ],
      "min": [
        0.006423989776521921,
        0.001751229981891811
      ],
      "type": "VEC2"
    },
    {
      "bufferView": 0,
      "byteOffset": 397128,
      "componentType": 5125,
      "count": 18417,
      "type": "SCALAR"
    },
    {
      "bufferView": 2,
      "byteOffset": 631992,
      "componentType": 5126,
      "count": 5325,
      "max": [
        0.41415101289749146,
        0.1716039925813675,
        0.6268789768218994
      ],
      "min": [
        -0.11727599799633026,
        -0.5949410200119019,
        0.5416650176048279
      ],
      "type": "VEC3"
    },
    {
      "bufferView": 2,
      "byteOffset": 695892,
      "componentType": 5126,
      "count": 5325,
      "max": [
        1.0,
        1.0,
        1.0
      ],
      "min": [
        -1.0,
        -1.0,
        -1.0
      ],
      "type": "VEC3"
    },
    {
      "bufferView": 3,
      "byteOffset": 421328,
      "componentType": 5126,
      "count": 5325,
      "max": [
        1.0,
        1.0,
        0.9999960064888,
        1.0
      ],
      "min": [
        -1.0,
        -1.0,
        -0.9988459944725037,
        -1.0
      ],
      "type": "VEC4"
    },
    {
      "bufferView": 1,
      "byteOffset": 210664,
      "componentType": 5126,
      "count": 5325,
      "max": [
        0.9939060211181641,
        0.9962090253829956
      ],
      "min": [
        0.0031851499807089567,
        -0.0003860440046992153
      ],
      "type": "VEC2"
    },
    {
      "bufferView": 0,
      "byteOffset": 470796,
      "componentType": 5125,
      "count": 21522,
      "type": "SCALAR"
    },
    {
      "bufferView": 2,
      "byteOffset": 759792,
      "componentType": 5126,
      "count": 2123,
      "max": [
        0.5061889886856079,
        0.44181299209594727,
        0.14213499426841736
      ],
      "min": [
        -0.2095479965209961,
        -0.6019790172576904,
        0.11864200234413147
      ],
      "type": "VEC3"
    },
    {
      "bufferView": 2,
      "byteOffset": 785268,
      "componentType": 5126,
      "count": 2123,
      "max": [
        1.0,
        1.0,
        4.447949777386384e-06
      ],
      "min": [
        -1.0,
        -1.0,
        -1.0
      ],
      "type": "VEC3"
    },
    {
      "bufferView": 3,
      "byteOffset": 506528,
      "componentType": 5126,
      "count": 2123,
      "max": [
        1.0,
        1.0,
        1.0,
        1.0
      ],
      "min": [
        -1.0,
        -1.0,
        -1.0,
        1.0
      ],
      "type": "VEC4"
    },
    {
      "bufferView": 1,
      "byteOffset": 253264,
      "componentType": 5126,
      "count": 2123,
      "max": [
        0.9914839863777161,
        0.9943079948425293
      ],
      "min": [
        0.004575749859213829,
        0.0029750000685453415
      ],
      "type": "VEC2"
    },
    {
      "bufferView": 0,
      "byteOffset": 556884,
      "componentType": 5125,
      "count": 9861,
      "type": "SCALAR"
    },
    {
      "bufferView": 2,
      "byteOffset": 810744,
      "componentType": 5126,
      "count": 212,
      "max": [
        0.4366079866886139,
        0.44220298528671265,
        0.6092039942741394
      ],
      "min": [
        -0.1500360071659088,
        -0.5246049761772156,
        0.11980199813842773
      ],
      "type": "VEC3"
    },
    {
      "bufferView": 2,
      "byteOffset": 813288,
      "componentType": 5126,
      "count": 212,
      "max": [
        3.783200099860551e-06,
        0.6889171600341797,
        1.0
      ],
      "min": [
        -1.4134399862086866e-05,
        -1.9825400158879347e-05,
        -1.0
      ],
      "type": "VEC3"
    },
    {
      "bufferView": 3,
      "byteOffset": 540496,
      "componentType": 5126,
      "count": 212,
      "max": [
        1.0,
        6.344629946397617e-05,
        1.3831499927619006e-05,
        1.0
      ],
      "min": [
        -1.0,
        -0.7350370287895203,
        -1.4155099961499218e-05,
        1.0
      ],
      "type": "VEC4"
    },
    {
      "bufferView": 1,
      "byteOffset": 270248,
      "componentType": 5126,
      "count": 212,
      "max": [
        0.9888240098953247,
        0.9940310120582581
      ],
      "min": [
        0.005969339981675148,
        0.005969339981675148
      ],
      "type": "VEC2"
    },
    {
      "bufferView": 0,
      "byteOffset": 596328,
      "componentType": 5125,
      "count": 846,
      "type": "SCALAR"
    }
  ],
  "asset": {
    "extras": {
      "author": "Osho (https://sketchfab.com/Crysis007-94)",
      "license": "CC-BY-4.0 (http://creativecommons.org/licenses/by/4.0/)",
      "source": "https://sketchfab.com/3d-models/wurlitzer-jukebox-412-4fb7f51877bf46f8b2dbe224bd870edc",
      "title": "Wurlitzer Jukebox 412"
    },
    "generator": "Sketchfab-12.67.0",
    "version": "2.0"
  },
  "bufferViews": [
    {
      "buffer": 0,
      "byteLength": 599712,
      "name": "floatBufferViews",
      "target": 34963
    },
    {
      "buffer": 0,
      "byteLength": 271944,
      "byteOffset": 599712,
      "byteStride": 8,
      "name": "floatBufferViews",
      "target": 34962
    },
    {
      "buffer": 0,
      "byteLength": 815832,
      "byteOffset": 871656,
      "byteStride": 12,
      "name": "floatBufferViews",
      "target": 34962
    },
    {
      "buffer": 0,
      "byteLength": 543888,
      "byteOffset": 1687488,
      "byteStride": 16,
      "name": "floatBufferViews",
      "target": 34962
    }
  ],
  "buffers": [
    {
      "byteLength": 2231376,
      "uri": "scene.bin"
    }
  ],
  "images": [
    {
      "uri": "textures/Glass_baseColor.png"
    },
    {
      "uri": "textures/Glass_metallicRoughness.png"
    },
    {
      "uri": "textures/Glass_normal.png"
    },
    {
      "uri": "textures/material_baseColor.jpeg"
    },
    {
      "uri": "textures/material_metallicRoughness.png"
    },
    {
      "uri": "textures/material_normal.jpeg"
    },
    {
      "uri": "textures/pered_baseColor.jpeg"
    },
    {
      "uri": "textures/pered_metallicRoughness.png"
    },
    {
      "uri": "textures/pered_normal.jpeg"
    },
    {
      "uri": "textures/mAT_BOK_baseColor.jpeg"
    },
    {
      "uri": "textures/mAT_BOK_metallicRoughness.png"
    },
    {
      "uri": "textures/mAT_BOK_normal.jpeg"
    },
    {
      "uri": "textures/dETAL_baseColor.jpeg"
    },
    {
      "uri": "textures/dETAL_metallicRoughness.png"
    },
    {
      "uri": "textures/dETAL_normal.jpeg"
    }
  ],
  "materials": [
    {
      "alphaMode": "BLEND",
      "doubleSided": true,
      "name": "Glass",
      "normalTexture": {
        "index": 2
      },
      "occlusionTexture": {
        "index": 1
      },
      "pbrMetallicRoughness": {
        "baseColorTexture": {
          "index": 0
        },
        "metallicRoughnessTexture": {
          "index": 1
        }
      }
    },
    {
      "doubleSided": true,
      "name": "material",
      "normalTexture": {
        "index": 5
      },
      "occlusionTexture": {
        "index": 4
      },
      "pbrMetallicRoughness": {
        "baseColorTexture": {
          "index": 3
        },
        "metallicRoughnessTexture": {
          "index": 4
        }
      }
    },
    {
      "doubleSided": true,
      "name": "pered",
      "normalTexture": {
        "index": 8
      },
      "occlusionTexture": {
        "index": 7
      },
      "pbrMetallicRoughness": {
        "baseColorTexture": {
          "index": 6
        },
        "metallicRoughnessTexture": {
          "index": 7
        }
      }
    },
    {
      "doubleSided": true,
      "name": "mAT_BOK",
      "normalTexture": {
        "index": 11
      },
      "occlusionTexture": {
        "index": 10
      },
      "pbrMetallicRoughness": {
        "baseColorTexture": {
          "index": 9
        },
        "metallicRoughnessTexture": {
          "index": 10
        }
      }
    },
    {
      "doubleSided": true,
      "name": "dETAL",
      "normalTexture": {
        "index": 14
      },
      "occlusionTexture": {
        "index": 13
      },
      "pbrMetallicRoughness": {
        "baseColorTexture": {
          "index": 12
        },
        "metallicRoughnessTexture": {
          "index": 13
        }
      }
    }
  ],
  "meshes": [
    {
      "name": "defaultMaterial",
      "primitives": [
        {
          "attributes": {
            "NORMAL": 1,
            "POSITION": 0,
            "TANGENT": 2,
            "TEXCOORD_0": 3
          },
          "indices": 4,
          "material": 4,
          "mode": 4
        }
      ]
    },
    {
      "name": "defaultMaterial",
      "primitives": [
        {
          "attributes": {
            "NORMAL": 6,
            "POSITION": 5,
            "TANGENT": 7,
            "TEXCOORD_0": 8
          },
          "indices": 9,
          "material": 3,
          "mode": 4
        }
      ]
    },
    {
      "name": "defaultMaterial",
      "primitives": [
        {
          "attributes": {
            "NORMAL": 11,
            "POSITION": 10,
            "TANGENT": 12,
            "TEXCOORD_0": 13
          },
          "indices": 14,
          "material": 2,
          "mode": 4
        }
      ]
    },
    {
      "name": "defaultMaterial",
      "primitives": [
        {
          "attributes": {
            "NORMAL": 16,
            "POSITION": 15,
            "TANGENT": 17,
            "TEXCOORD_0": 18
          },
          "indices": 19,
          "material": 1,
          "mode": 4
        }
      ]
    },
    {
      "name": "defaultMaterial",
      "primitives": [
        {
          "attributes": {
            "NORMAL": 21,
            "POSITION": 20,
            "TANGENT": 22,
            "TEXCOORD_0": 23
          },
          "indices": 24,
          "material": 0,
          "mode": 4
        }
      ]
    }
  ],
  "nodes": [
    {
      "children": [
        1
      ],
      "matrix": [
        1.3926966190338135,
        0.0,
        0.0,
        0.0,
        0.0,
        3.0924077055378995e-16,
        -1.3926966190338135,
        0.0,
        0.0,
        1.3926966190338135,
        3.0924077055378995e-16,
        0.0,
        0.0,
        0.0,
        0.0,
        1.0
      ],
      "name": "Sketchfab_model"
    },
    {
      "children": [
        2,
        4,
        6,
        8,
        10
      ],
      "matrix": [
        1.0,
        0.0,
        0.0,
        0.0,
        0.0,
        -4.371139006309477e-08,
        0.999999999999999,
        0.0,
        0.0,
        -0.999999999999999,
        -4.371139006309477e-08,
        0.0,
        0.0,
        0.0,
        0.0,
        1.0
      ],
      "name": "Collada visual scene group"
    },
    {
      "children": [
        3
      ],
      "name": "Cube.057"
    },
    {
      "mesh": 0,
      "name": "defaultMaterial"
    },
    {
      "children": [
        5
      ],
      "name": "Cube.065"
    },
    {
      "mesh": 1,
      "name": "defaultMaterial"
    },
    {
      "children": [
        7
      ],
      "name": "Cube.085"
    },
    {
      "mesh": 2,
      "name": "defaultMaterial"
    },
    {
      "children": [
        9
      ],
      "name": "Cube.124"
    },
    {
      "mesh": 3,
      "name": "defaultMaterial"
    },
    {
      "children": [
        11
      ],
      "name": "Glass.002"
    },
    {
      "mesh": 4,
      "name": "defaultMaterial"
    }
  ],
  "samplers": [
    {
      "magFilter": 9729,
      "minFilter": 9987,
      "wrapS": 10497,
      "wrapT": 10497
    }
  ],
  "scene": 0,
  "scenes": [
    {
      "name": "Sketchfab_Scene",
      "nodes": [
        0
      ]
    }
  ],
  "textures": [
    {
      "sampler": 0,
      "source": 0
    },
    {
      "sampler": 0,
      "source": 1
    },
    {
      "sampler": 0,
      "source": 2
    },
    {
      "sampler": 0,
      "source": 3
    },
    {
      "sampler": 0,
      "source": 4
    },
    {
      "sampler": 0,
      "source": 5
    },
    {
      "sampler": 0,
      "source": 6
    },
    {
      "sampler": 0,
      "source": 7
    },
    {
      "sampler": 0,
      "source": 8
    },
    {
      "sampler": 0,
      "source": 9
    },
    {
      "sampler": 0,
      "source": 10
    },
    {
      "sampler": 0,
      "source": 11
    },
    {
      "sampler": 0,
      "source": 12
    },
    {
      "sampler": 0,
      "source": 13
    },
    {
      "sampler": 0,
      "source": 14
    }
  ]
}
